<svg xmlns="http://www.w3.org/2000/svg" xmlns:xlink="http://www.w3.org/1999/xlink" width="258.841" height="93.68" viewBox="0 0 258.841 93.68">
  <defs>
    <clipPath id="clip-path">
      <path id="Path_1782" data-name="Path 1782" d="M0-75.3H257.063V-166.31H0Z" transform="translate(0 166.31)"/>
    </clipPath>
    <clipPath id="clip-path-2">
      <path id="Path_1782-2" data-name="Path 1782" d="M0-75.3H257.063V-166.31H0Z" transform="translate(0 166.31)" fill="none"/>
    </clipPath>
  </defs>
  <g id="title" transform="translate(-53.839 -459.31)">
    <g id="Group_1118" data-name="Group 1118" transform="translate(53.839 461.977)" opacity="0.624">
      <g id="Group_1116" data-name="Group 1116" transform="translate(0 0)" clip-path="url(#clip-path)">
        <g id="Group_1114" data-name="Group 1114" transform="translate(0.905 49.701)">
          <path id="Path_1780" data-name="Path 1780" d="M-12.45-6.185V-2.9l.143.167-.9.31-3.762-.786-.6.166h-1.214a9.865,9.865,0,0,0-4.357-.642h-.881Q-27.5-3.4-27.5-.376q.4,2.191,1.072,2.191.024,1.12,5.4,1.119l1.5-.166.738.166.453-.166.9.166,2.119-.166h.143l.143.166.619-.166h.286l.453.309h.167l.9-.309a2.183,2.183,0,0,1,1.643.476l.762,4.238h-.166v.166q.452,4,1.072,4.715H-9.45q.167,2.834.6,2.834L-9,15.983l.143.452V16.6L-9,16.768l.453,2.81-.143.166v1.1l.452,2.357-.166.953.166.143-.166.166v.476Q-7.973,27.6-6.283,27.6l.738-.167q1.309,0,1.81-2.667l-.143-1.4.309-1.572v-.166l-.166-.143v-.167l.166-.167-.309-1.4v-.166l.143-.143-.143-1.262q-.025-.476.309-.477l-.166-1.1.166-.619a13.673,13.673,0,0,0-.619-3.31l.166-.619-.166-.167V11.72l.166-.143-.166-1.1.166-.476L-5.092,4.958V4.815l.166-.167-.166-1.715h.762l.762-.166v.166l.143.143.762-.143.595.143,1.048-.143.452.143.453-.309,1.191.309H4.1l2.858.167L8,2.934l1.047.31,1.357-.167q1.81,0,1.81-1.571,0-1.166-1.643-1.572L8.6.1Q8.36-.209,5-.542H3.789l-.143.166q0-.214-1.048-.476L1.384-.685.932-.995H-.711l-.452-.333h-.762l-.595.167-3.024-.477q-.428,0-.738-3.619,0-4.548-3-4.548H-9.45q-2.715,0-3,3.619M20.9-8.209v-.167l-2.286.857a19.071,19.071,0,0,0-4.572,3.6q-1.024,1.881-1.476,1.881L9.967,1.91l.143.167L7.848,7.22A36.932,36.932,0,0,0,6.2,14.435l.167,1.548L6.2,17.173l.667,3.1H6.7v.524L8.324,23.53q.976.382.976.691,1.571,2.072,6.858,3.429,2.523,0,5.381-2.572,1.285-1.714,1.619-1.714A21.72,21.72,0,0,0,28.706,17.7a12.4,12.4,0,0,0,4.238-4.81A15.331,15.331,0,0,0,36.706,6.2q1.143,0,1.952-4.976V.886L38.492.72q.333,0,.333-2.071v-.691a2.532,2.532,0,0,0-1.476-2.405Q36.706-6.042,35.9-6.328H35.73l-.167.167A4.159,4.159,0,0,0,33.277-7.71h-.166l-.167.19-.476-.357h-1.31l-2.286.524q-1.572-2.4-3.1-2.4A12.994,12.994,0,0,0,20.9-8.209M34.754-.137V1.22l-.333.524v1.19q-.025,1.215-.334,1.214a10.1,10.1,0,0,1-2.6,4.453,12.278,12.278,0,0,1-3.6,4.286c-.016.35-.128.524-.333.524q-.882,1.548-1.452,1.548-1.739,2.572-2.12,2.572l-3.262,2.4q-1.166,1.191-1.476,1.191L15.991,23.2h-.643a6.936,6.936,0,0,1-2.119-2.238q-1.762,0-2.119-4.81v-1.19a5.917,5.917,0,0,0,.81-2.405v-.166l-.167-.19q.286,0,.643-1.524v-.19l-.167-.167,2.953-5.476V4.482l-.167-.166h.167l.166-.167q.333-1.214.81-1.214Q17.3,1.22,17.943,1.22a14.024,14.024,0,0,1,2.785-2.572q.9,1.214,1.619,1.214a8.528,8.528,0,0,0,3.1-.691A2.783,2.783,0,0,1,27.9-2.042h.809l.333-.333.167.166,3.1-.524q2.452,1,2.453,2.6m10.106-10.1v.786a14.452,14.452,0,0,0,1.881,5.905v.166l-.166.167v.143l.166.166q0,.263-1.1.762H45.5l-.167-.143q-.309,0-.309.452-1.548.406-1.715.786Q40.407.839,39.883,1.934q-.952.381-1.571,2.333a13.534,13.534,0,0,0-1.548,4.976l.143.619v.166l-.143.143.309,2.191v.167l-.929-.31A2.26,2.26,0,0,0,34.1,13.6v.642q.333,1.715,1.571,1.715h.31a2.5,2.5,0,0,0,1.4-.643h.762a11.271,11.271,0,0,0,1.262,3.429q3.833,4.191,5.62,4.833.023.286,3.286,1.572h.143l.167-.167q0,.882,9.191,2.5,3.119-.643,3.119-1.238a8.665,8.665,0,0,0,2.358-1.881q1.643-1.9,3.119-8.1V16.1l-.167-.143a3.8,3.8,0,0,0,.31-1.715v-.166l-.31-.929.167-.929-.167-.786.167-.476-.167-1.1.476-2.024V7.387q0-1.809-2.333-2.5l-1.262.143L62.5,4.886q-2.334.477-2.333.929H60l-.143-.143L56.408,6.744l-1.857.786a27.525,27.525,0,0,0-5.929,2.024h-.167l-.143-.143L42.05,11.577h-.143l-.167-.143.619-4.047q0-.644,3.286-3.429h.166l.143.143h.166l.453-.452h.166l.167.143,1.238-.786.619.166L50.027,2.7l.619.167,1.548-.31h.167L52.5,2.7A3.244,3.244,0,0,0,54.694-.257v-.31q0-1.571-.929-1.714-1.31-1.309-2.024-5.929-.5-5.452-3.6-5.453-2.928,0-3.286,3.429M63.123,10.172v.953l.167,1.714-.31.929.143.929-.309.953.166.452-.952,2.5A15.371,15.371,0,0,1,60.17,22.03q0,1.191-3.762,2.5-3.262-.6-3.262-1.1a10.411,10.411,0,0,1-3.119-1.4q-2.81-1.428-2.81-1.714-2.667-1.143-2.667-2.191L43,16.411h.143l-.619-2.476,3.738-.953h.167l.143.167q.786-.214.786-.476l.476.166a3.449,3.449,0,0,1,1.548-.476l.167.167q2.381-.428,2.5-.786a23.677,23.677,0,0,0,5.31-.929v.143q2.166-.262,2.167-.619l3.453-.167ZM92.016-5.066H90.373l-.334.357h-.166l-.167-.167h-.5q0,.214-2.81.881H85.73l-.5-.357-.333.357-1-.167-2.643.333-.667-.166h-.333l-1.81.357H76.777l-.809-.191-1.5.357-1.5-.524H71.824l-1,.166q-1.334-.166-1.334-.524l-.5.19a7.583,7.583,0,0,1-2.786-.9l-1.334.357v-.167q-.809,0-1.833,1.4l.167.548-.333,1.047a3.77,3.77,0,0,0,1.666,3.191q1.62,3.191,2.143,3.214l1.334,1.953A4.445,4.445,0,0,0,65.7,10.2q0,2.976,3.453,3.548l2-.524q0,.524.333.524l1.31,4.262,1.667,3.357H74.3l.167,1.238v1.072l-.167.881.334.357q0,2,3.143,2.309h.667a2.891,2.891,0,0,1,1.476-.881q0-1,2-2.5,1.5-.214,1.5-.691l3.809-3.19q3.143-1.238,3.143-2.143,3.975-1.643,3.976-3v-.548q0-2.119-1.667-2.119h-1l-.81.166Q88.063,14.1,87.063,14.1A8.634,8.634,0,0,1,83.9,15.7q-4.667,3.357-5.953,3.357h-.166L76.61,15.7h.166L75.8,11.959h.976l.167-.167.167.167h.166l.333-.334h.167l.166.167,1.5-.357,1.31.19q1.833-.548,1.833-.9l.833.19.143-.19L94.016,7.887h.166l.167.19a10.964,10.964,0,0,1,3.643-1.072H99.3a1.9,1.9,0,0,0,1.167-1.6V4.7q-.024-1.762-1.977-1.762h-.5l-.667.524a78.466,78.466,0,0,0-9.119,1.6H88.04l-.167-.19q-7.262.714-7.786,1.072l-.642-.167-1.834.357q0-.309-1.643-.357h-.333l-2,.524a9.2,9.2,0,0,0-1.167-2.667A14.768,14.768,0,0,0,70.824.434V.267l3.31.881.5-.167a3.7,3.7,0,0,0,2.309.691h.833l.166-.166.167.166h.5l.833-.166q0,.357,1.643.357h1l1.167-.19v.19q.809,0,.809.357l1.667-.19.833.19v-.19l.167-.167,1.643.167h.5l.833-.167.167.167,1.476-.167q5.977.025,5.976-3.738Q96.659-5.59,94.349-5.59a3.822,3.822,0,0,0-2.333.524m17.535-1.119V-2.9l.143.167-.9.31-3.762-.786-.595.166h-1.214a9.867,9.867,0,0,0-4.358-.642h-.881Q94.5-3.4,94.5-.376q.4,2.191,1.071,2.191.024,1.12,5.405,1.119l1.5-.166.738.166.452-.166.905.166,2.119-.166h.143l.143.166.619-.166h.286l.453.309h.167l.9-.309a2.183,2.183,0,0,1,1.643.476l.762,4.238h-.167v.166q.452,4,1.072,4.715h-.167q.167,2.834.6,2.834l-.143.786.143.452V16.6l-.143.167.453,2.81-.143.166v1.1l.452,2.357-.166.953.166.143-.166.166v.476q.429,2.667,2.119,2.667l.738-.167q1.309,0,1.81-2.667l-.143-1.4.309-1.572v-.166l-.166-.143v-.167l.166-.167-.309-1.4v-.166l.143-.143-.143-1.262q-.025-.476.309-.477l-.166-1.1.166-.619a13.673,13.673,0,0,0-.619-3.31l.167-.619-.167-.167V11.72l.167-.143-.167-1.1.167-.476-1.072-5.048V4.815l.166-.167-.166-1.715h.762l.762-.166v.166l.143.143.762-.143.595.143,1.048-.143.453.143.452-.309,1.191.309H126.1l2.857.167L130,2.934l1.048.31,1.357-.167q1.809,0,1.809-1.571,0-1.166-1.643-1.572L130.6.1q-.238-.309-3.6-.643H125.79l-.143.166q0-.214-1.048-.476l-1.214.167-.452-.31H121.29l-.453-.333h-.762l-.6.167-3.024-.477q-.429,0-.738-3.619,0-4.548-3-4.548h-.167q-2.714,0-3,3.619m45.584-.428a25.285,25.285,0,0,0,.31,4.69l-.167.453.31,2.191-.143.738.143.595V2.2l-.143.143.143.738-.31,1.619.31,1.167h-.143l-.167.143.167.453q-.024,1.62-.905,1.619l-.881-.166-.167.166-2.071.429V8.363q-1.358.262-1.357.571l-.453-.143-3.262.595-.619-.143-.428.286q-2.692.286-2.691.738l-2.381-.286-1.047.428v-.143l-1.786.143L135.587-1.614q-.429-4.262-3.429-4.262-2.953.69-2.952,2.643l.143,2.048,2.214,12.477v.143q-5.809,0-5.81,3.524.691,2.953,2.691,2.952a24.083,24.083,0,0,0,4.619-.6l.143.738-.143.143v.143q.047.739.309.738a21.765,21.765,0,0,0,.881,4.548q0,3.668,2.976,3.667.952,0,2.1-1.762l-.286-1.762v-.143l.143-.143a2.363,2.363,0,0,0-.453-1.333v-1.9l-.286-.881.143-.738-.453-2.476q5.358-.737,5.977-1.333h.143l.143.143q4.286-.786,4.929-1.31l.738.143,1.047-.453v.167q1.1,0,1.191-.453l1.786-.428h.9l.453,2.048-.167.595v.715a3.449,3.449,0,0,0,.31,1.619,4.659,4.659,0,0,0-.31,1.9v.31l.167,1.024-.167.143.167.738a15.69,15.69,0,0,1-.6,3.214q0,1.31,1.928,2.072,2.381-.476,2.381-1.9l-.429-1.762V20.1a37.038,37.038,0,0,0,.881-7.477l-.143-1.048h.286l.6.167,2.547-.6.453.143h.143l.143-.143q2.691-.19,2.691-1.619v-.6q0-1.452-2.238-1.738h-.143l-.143.143-.619-.143h-.143l-1.048.143-.286-.31-1.5.167V6.458l.453-1.619-.143-.6V3.958l.286-.452V2.482L160.66.72q.451,0,.452-2.643V-4.257l-.309-.309.452-1.762q-.6-3.072-2.69-3.072-3.429.406-3.429,2.786m32.941,1.548h-1.643l-.333.357h-.166l-.167-.167h-.5q0,.214-2.81.881h-.667l-.5-.357-.333.357-1-.167-2.643.333-.667-.166h-.333l-1.81.357h-1.667l-.809-.191-1.5.357-1.5-.524h-1.143l-1,.166q-1.334-.166-1.334-.524l-.5.19a7.584,7.584,0,0,1-2.785-.9l-1.334.357v-.167q-.809,0-1.833,1.4l.167.548-.334,1.047A3.77,3.77,0,0,0,160.6,1.315q1.62,3.191,2.143,3.214l1.334,1.953a4.445,4.445,0,0,0-2.31,3.715q0,2.976,3.453,3.548l2-.524c0,.349.111.524.333.524l1.31,4.262,1.667,3.357h-.167l.167,1.238v1.072l-.167.881.333.357q0,2,3.143,2.309h.667a2.891,2.891,0,0,1,1.476-.881q0-1,2-2.5,1.5-.214,1.5-.691l3.81-3.19q3.143-1.238,3.143-2.143,3.976-1.643,3.977-3v-.548q0-2.119-1.667-2.119h-1l-.809.166q-2.81,1.786-3.81,1.786a8.634,8.634,0,0,1-3.166,1.6q-4.667,3.357-5.953,3.357h-.166L172.671,15.7h.166l-.976-3.738h.976l.167-.167.166.167h.167l.333-.334h.167l.166.167,1.5-.357,1.31.19q1.834-.548,1.834-.9l.833.19.143-.19,10.452-2.834h.167l.167.19a10.964,10.964,0,0,1,3.643-1.072h1.31a1.9,1.9,0,0,0,1.167-1.6V4.7q-.025-1.762-1.977-1.762h-.5l-.667.524a78.464,78.464,0,0,0-9.119,1.6H184.1l-.166-.19q-7.263.714-7.786,1.072l-.643-.167-1.833.357q0-.309-1.643-.357h-.333l-2,.524a9.2,9.2,0,0,0-1.167-2.667,14.766,14.766,0,0,0-1.643-3.19V.267l3.31.881.5-.167a3.7,3.7,0,0,0,2.31.691h.833L174,1.506l.167.166h.5l.833-.166q0,.357,1.643.357h1l1.167-.19v.19q.809,0,.809.357l1.667-.19.834.19v-.19l.166-.167,1.643.167h.5l.833-.167.167.167,1.476-.167q5.977.025,5.977-3.738-.667-3.714-2.976-3.714a3.822,3.822,0,0,0-2.333.524m1.582-5.191a3.564,3.564,0,0,0,1.191,2.6q1.714.739,1.714,1.119l1.524.976.167.143a12.765,12.765,0,0,0,1.333,4.358l-.166.976V.7l.166.167-.166.167V2.148l.333.5v.143l-.167.81h.167a32.031,32.031,0,0,1,1.357,5v.166l-.167.143.167,1.31h-1.357q-2.691.763-2.691,2.405v.166q0,1.691,2.191,2.738l2.548-.167a1.541,1.541,0,0,1,1.19,1.453v2.095l.667,3.381-.166.976q.524,3.857,2.214,3.857h.5a2.082,2.082,0,0,0,2.214-2.1l-.357-1.285.166-.167v-.952l-.333-.5v-.642l.333-2.572v-.166l-.333-1.286V16.173q.69,0,.691.309,3.38.239,3.381.667,7.119.857,7.12,1.428,1.69.025,1.69.333,2.429.477,2.548.81a55.313,55.313,0,0,1,7.643,3.048h.833l.858-.809v-.786l-.5-.643a12.531,12.531,0,0,1-3.072-1.452,20.549,20.549,0,0,1-4.238-1.452,15.25,15.25,0,0,1-4.4-1.929,52.944,52.944,0,0,1-6.429-2.1h-.19l-.166.143q0-.286-.667-.31v-.166a11.2,11.2,0,0,0,3.905-1.929q2.358-.928,2.357-2.429l.524-.143q.809,0,1.69-4.524-.643-2.571-1.357-2.572L214.421-.09l-3.905-2.6a6.465,6.465,0,0,0-2.548-1.6q-3.334-2.262-4.072-2.262A11.056,11.056,0,0,0,200.349-8.8a7.508,7.508,0,0,0-2.547-1.6q-2.906-3.072-4.739-3.072-2.715,0-3.4,3.215M207.635.7l3.048,1.619q1,1.453,1.691,1.452V5.053l-.5,1.119v.166l.167.167-.5.643q-.857,0-.858.809l-2.714,1.619q-1.047.952-4.572.952h-.524l.19-1.452-.524-1.762h.167l-.833-5.476.166-.167-.166-.476V1.029l.166-.167-.166-.952.166-1.31.167-.143Z" transform="translate(27.498 13.662)"/>
        </g>
        <g id="Group_1115" data-name="Group 1115" transform="translate(0 0)">
          <path id="Path_1781" data-name="Path 1781" d="M0-5.22a3.564,3.564,0,0,0,1.191,2.6Q2.9-1.887,2.9-1.505L4.429-.53,4.6-.386A12.762,12.762,0,0,0,5.929,3.971l-.167.976v.786l.167.166-.167.167V7.185l.334.5v.143l-.167.81H6.1a32.086,32.086,0,0,1,1.357,5V13.8l-.167.143.167,1.31H6.1q-2.691.762-2.691,2.4v.167q0,1.691,2.191,2.738L8.143,20.4a1.541,1.541,0,0,1,1.191,1.452v2.1L10,27.329l-.166.976q.523,3.857,2.214,3.858h.5a2.082,2.082,0,0,0,2.214-2.1l-.357-1.286.167-.166v-.953l-.333-.5V26.52l.333-2.572v-.167L14.239,22.5V21.21q.69,0,.691.31,3.38.238,3.381.667,7.119.857,7.12,1.428,1.69.025,1.69.334,2.428.476,2.547.809a55.327,55.327,0,0,1,7.643,3.048h.833L39,27V26.21l-.5-.643a12.51,12.51,0,0,1-3.071-1.452,20.517,20.517,0,0,1-4.238-1.452,15.25,15.25,0,0,1-4.4-1.929,52.946,52.946,0,0,1-6.429-2.1h-.19L20,18.781q0-.286-.667-.31V18.3a11.2,11.2,0,0,0,3.905-1.929q2.357-.928,2.357-2.429l.524-.143q.809,0,1.691-4.524-.644-2.572-1.358-2.572l-1.69-1.762-3.9-2.6A6.465,6.465,0,0,0,18.31.756q-3.334-2.262-4.072-2.262a11.06,11.06,0,0,0-3.548-2.262,7.5,7.5,0,0,0-2.548-1.6Q5.238-8.435,3.4-8.435.69-8.435,0-5.22M17.977,5.733l3.048,1.619q1,1.453,1.69,1.452V10.09l-.5,1.119v.166l.166.167-.5.643q-.858,0-.858.809L18.31,14.614q-1.048.952-4.572.952h-.524l.19-1.452-.524-1.762h.166l-.833-5.476.166-.167-.166-.476V6.066l.166-.167-.166-.952.166-1.31.167-.143ZM34.2-8.554q0,1.977,2.358,6.548A12.466,12.466,0,0,0,38.3,1.851q0,1.429,1.857,2.072,2.095-.357,2.1-1.929V1.709q-1.12-4.737-1.857-5.667-.357-2.072-.738-2.071l.119-.143q-.191-1.334-.357-1.334-.406-4.024-2.357-4.024Q34.2-11.221,34.2-8.554m3.953,13.81q0-.286-7.548-.428A2.757,2.757,0,0,0,27.893,7.8q.477,3.119,2.358,3.119l7.286.286-.119.738v1.333l.119.167-.119.143v.881l.119.595v.167l-.119.143.119,2.976L37.3,21.019l.119,1.786-.238.286.119,2.238q-.071,2.381-.5,2.381l-.976-.286h-.5l-.143.143v-.143l-2.714-.6-.881.143-1.6-.595-.357.143-1.381-.286-1.357.143-1-.143q-1.881,0-2.357,3.119a2.848,2.848,0,0,0,2.5,2.976,2.391,2.391,0,0,0,1.358-.453l1.119.286.5-.143h.738l.238.31,2.476-.31.381.143.119-.143q.357-.023.357.31l4.834.286,1-.166.738.166,1.119-.166,1.119.166,2.119-.166.476.166,5.714-.6q3.6-.523,3.6-1.476v-.6a1.49,1.49,0,0,0-1-1.5l-3.715.9-3.714-.309-.5.143q0-.167-1-.428l-.738.143a2.492,2.492,0,0,0-1.357-.31l-.5.167h-.119a8.919,8.919,0,0,0,.619-3.715v-1.19l.119-.762-.119-.143.119-2.524-.238-.286.119-.167-.119-1.023.357-2.524-.119-.9.119-1.929V12.542l-.119-1.024h.119v-.309l1.381.143,1.476-.428.5.286h.119l.119-.143.5.143.738-.143h.143l.357.286h.881l.357-.286h1.238a3.169,3.169,0,0,0,1.5-2.238q-.548-2.809-1.976-2.81h-.619l-.881.143-.381-.31-.738.31-.238-.31H45.608l-.619-.143-.119.143-2.857-.428-.381.143a3.888,3.888,0,0,0-1.6-.9,3.161,3.161,0,0,0-1.881.595M62.286-4.7l.166,1.024A18.835,18.835,0,0,1,64.286.256,2.3,2.3,0,0,0,62.6.947h-.9l-.31-.333Q57.1,1.042,57.1,1.637l-.595-.19-2,.691V1.971q-4.834,1.691-5.953,3.238a3.182,3.182,0,0,0-1.833,3.239v.333q.643,1.214.929,1.214,0,1.071,5.476,2.381h.167l1.072-.167q0,.286,1.524.667l.619-.167h.452l9.762,1.881h.167l.143-.166,2.762.5.6-.166,3.833.691.143-.167,4.119.833.167-.167,1.072.167v.524a1.944,1.944,0,0,0-2,1.357,15.936,15.936,0,0,0-3.19,2.048,75.232,75.232,0,0,1-14.358,7.691v-.19a12.692,12.692,0,0,1-3.524,1.548H56.5a8.207,8.207,0,0,0-.619-3.762h.143a15.624,15.624,0,0,0-1.977-5.619h.143q-.667-3.072-2.119-3.072h-.929a2.134,2.134,0,0,0-1.072,1.715v1.19l.619,1.024a10.038,10.038,0,0,0,.762,3.738v.167l-.167.19L51.9,27.9v.167l-.143.166q1.119,4.1,2.6,4.1a1.752,1.752,0,0,0,1.524-.857h.905a5.359,5.359,0,0,0,3.381-1.191l8.691-3.571v.166q1.834-.38,1.834-.857a31.026,31.026,0,0,0,9.024-4.6q1.357-.333,1.357-.691,4.286-3.643,4.286-4.786a3.079,3.079,0,0,0-1.072-1.524h-.905l-2.6-.524H80.62l-.143.167q-.214-.429-2.762-.667l-.453.166q0-.38-2.286-.69h-.166l-.143.166-1.69-.5-.6.167a32.214,32.214,0,0,0-5.048-1.357h-.143l-.167.166q-.667-.666-4.119-1.357l-7.953-2.4V7.59l4.6-1.024.9.167h1.381L62,6.566q0,.358.762.357l.453-.19.595.19.619-.19.619.19H66.12l1.524-.19,1.381.19h1.214q2.738-.928,2.738-3.262V3.495a6.861,6.861,0,0,0-.6-2.215q-.763,0-.762-.857a9.481,9.481,0,0,1-2-2.881q-1.286-5.809-3.81-5.81-3.524.262-3.524,3.571M108.7-.03h-1.643l-.333.357h-.166l-.167-.167h-.5q0,.214-2.81.881h-.667l-.5-.357-.333.357-1-.166-2.643.333-.667-.167h-.333l-1.81.357H93.465l-.809-.19-1.5.357-1.5-.524H88.512l-1,.167q-1.334-.167-1.334-.524l-.5.191A7.588,7.588,0,0,1,82.893-.03L81.559.328V.161q-.809,0-1.833,1.4l.167.548-.334,1.047a3.77,3.77,0,0,0,1.667,3.191q1.62,3.191,2.143,3.215L84.7,11.519a4.445,4.445,0,0,0-2.31,3.715q0,2.976,3.453,3.548l2-.524c0,.349.111.524.333.524l1.31,4.262L91.155,26.4h-.167l.167,1.238V28.71l-.167.881.333.357q0,2,3.143,2.31h.667a2.89,2.89,0,0,1,1.476-.881q0-1,2-2.5,1.5-.214,1.5-.691l3.81-3.19q3.143-1.238,3.143-2.143,3.976-1.643,3.976-3V19.3q0-2.119-1.666-2.119h-1l-.809.166q-2.81,1.786-3.81,1.786a8.638,8.638,0,0,1-3.166,1.6q-4.667,3.357-5.953,3.357h-.166L93.3,20.734h.166L92.488,17h.976l.167-.167L93.8,17h.167l.333-.333h.167l.166.166,1.5-.357,1.31.19q1.834-.548,1.834-.905l.833.19.143-.19L110.7,12.924h.167l.166.19a10.957,10.957,0,0,1,3.643-1.072h1.31a1.9,1.9,0,0,0,1.167-1.6V9.733q-.025-1.762-1.977-1.762h-.5l-.667.524a78.587,78.587,0,0,0-9.119,1.6h-.167l-.166-.19q-7.263.714-7.786,1.072l-.643-.167-1.833.357q0-.309-1.643-.357h-.333l-2,.524a9.2,9.2,0,0,0-1.167-2.667,14.767,14.767,0,0,0-1.643-3.19V5.3l3.31.881.5-.166a3.7,3.7,0,0,0,2.31.69h.833l.166-.166.167.166h.5l.833-.166q0,.357,1.643.357h1l1.167-.191V6.9q.809,0,.809.357l1.667-.19.833.19v-.19l.166-.166,1.643.166h.5l.833-.166.167.166,1.476-.166q5.977.024,5.977-3.739-.667-3.714-2.976-3.714A3.821,3.821,0,0,0,108.7-.03" transform="translate(0 11.53)"/>
        </g>
      </g>
    </g>
    <g id="Group_1117" data-name="Group 1117" transform="translate(55.617 459.31)">
      <g id="Group_1116-2" data-name="Group 1116" transform="translate(0 0)" clip-path="url(#clip-path-2)">
        <g id="Group_1114-2" data-name="Group 1114" transform="translate(0.905 49.701)">
          <path id="Path_1780-2" data-name="Path 1780" d="M-12.45-6.185V-2.9l.143.167-.9.31-3.762-.786-.6.166h-1.214a9.865,9.865,0,0,0-4.357-.642h-.881Q-27.5-3.4-27.5-.376q.4,2.191,1.072,2.191.024,1.12,5.4,1.119l1.5-.166.738.166.453-.166.9.166,2.119-.166h.143l.143.166.619-.166h.286l.453.309h.167l.9-.309a2.183,2.183,0,0,1,1.643.476l.762,4.238h-.166v.166q.452,4,1.072,4.715H-9.45q.167,2.834.6,2.834L-9,15.983l.143.452V16.6L-9,16.768l.453,2.81-.143.166v1.1l.452,2.357-.166.953.166.143-.166.166v.476Q-7.973,27.6-6.283,27.6l.738-.167q1.309,0,1.81-2.667l-.143-1.4.309-1.572v-.166l-.166-.143v-.167l.166-.167-.309-1.4v-.166l.143-.143-.143-1.262q-.025-.476.309-.477l-.166-1.1.166-.619a13.673,13.673,0,0,0-.619-3.31l.166-.619-.166-.167V11.72l.166-.143-.166-1.1.166-.476L-5.092,4.958V4.815l.166-.167-.166-1.715h.762l.762-.166v.166l.143.143.762-.143.595.143,1.048-.143.452.143.453-.309,1.191.309H4.1l2.858.167L8,2.934l1.047.31,1.357-.167q1.81,0,1.81-1.571,0-1.166-1.643-1.572L8.6.1Q8.36-.209,5-.542H3.789l-.143.166q0-.214-1.048-.476L1.384-.685.932-.995H-.711l-.452-.333h-.762l-.595.167-3.024-.477q-.428,0-.738-3.619,0-4.548-3-4.548H-9.45q-2.715,0-3,3.619M20.9-8.209v-.167l-2.286.857a19.071,19.071,0,0,0-4.572,3.6q-1.024,1.881-1.476,1.881L9.967,1.91l.143.167L7.848,7.22A36.932,36.932,0,0,0,6.2,14.435l.167,1.548L6.2,17.173l.667,3.1H6.7v.524L8.324,23.53q.976.382.976.691,1.571,2.072,6.858,3.429,2.523,0,5.381-2.572,1.285-1.714,1.619-1.714A21.72,21.72,0,0,0,28.706,17.7a12.4,12.4,0,0,0,4.238-4.81A15.331,15.331,0,0,0,36.706,6.2q1.143,0,1.952-4.976V.886L38.492.72q.333,0,.333-2.071v-.691a2.532,2.532,0,0,0-1.476-2.405Q36.706-6.042,35.9-6.328H35.73l-.167.167A4.159,4.159,0,0,0,33.277-7.71h-.166l-.167.19-.476-.357h-1.31l-2.286.524q-1.572-2.4-3.1-2.4A12.994,12.994,0,0,0,20.9-8.209M34.754-.137V1.22l-.333.524v1.19q-.025,1.215-.334,1.214a10.1,10.1,0,0,1-2.6,4.453,12.278,12.278,0,0,1-3.6,4.286c-.016.35-.128.524-.333.524q-.882,1.548-1.452,1.548-1.739,2.572-2.12,2.572l-3.262,2.4q-1.166,1.191-1.476,1.191L15.991,23.2h-.643a6.936,6.936,0,0,1-2.119-2.238q-1.762,0-2.119-4.81v-1.19a5.917,5.917,0,0,0,.81-2.405v-.166l-.167-.19q.286,0,.643-1.524v-.19l-.167-.167,2.953-5.476V4.482l-.167-.166h.167l.166-.167q.333-1.214.81-1.214Q17.3,1.22,17.943,1.22a14.024,14.024,0,0,1,2.785-2.572q.9,1.214,1.619,1.214a8.528,8.528,0,0,0,3.1-.691A2.783,2.783,0,0,1,27.9-2.042h.809l.333-.333.167.166,3.1-.524q2.452,1,2.453,2.6m10.106-10.1v.786a14.452,14.452,0,0,0,1.881,5.905v.166l-.166.167v.143l.166.166q0,.263-1.1.762H45.5l-.167-.143q-.309,0-.309.452-1.548.406-1.715.786Q40.407.839,39.883,1.934q-.952.381-1.571,2.333a13.534,13.534,0,0,0-1.548,4.976l.143.619v.166l-.143.143.309,2.191v.167l-.929-.31A2.26,2.26,0,0,0,34.1,13.6v.642q.333,1.715,1.571,1.715h.31a2.5,2.5,0,0,0,1.4-.643h.762a11.271,11.271,0,0,0,1.262,3.429q3.833,4.191,5.62,4.833.023.286,3.286,1.572h.143l.167-.167q0,.882,9.191,2.5,3.119-.643,3.119-1.238a8.665,8.665,0,0,0,2.358-1.881q1.643-1.9,3.119-8.1V16.1l-.167-.143a3.8,3.8,0,0,0,.31-1.715v-.166l-.31-.929.167-.929-.167-.786.167-.476-.167-1.1.476-2.024V7.387q0-1.809-2.333-2.5l-1.262.143L62.5,4.886q-2.334.477-2.333.929H60l-.143-.143L56.408,6.744l-1.857.786a27.525,27.525,0,0,0-5.929,2.024h-.167l-.143-.143L42.05,11.577h-.143l-.167-.143.619-4.047q0-.644,3.286-3.429h.166l.143.143h.166l.453-.452h.166l.167.143,1.238-.786.619.166L50.027,2.7l.619.167,1.548-.31h.167L52.5,2.7A3.244,3.244,0,0,0,54.694-.257v-.31q0-1.571-.929-1.714-1.31-1.309-2.024-5.929-.5-5.452-3.6-5.453-2.928,0-3.286,3.429M63.123,10.172v.953l.167,1.714-.31.929.143.929-.309.953.166.452-.952,2.5A15.371,15.371,0,0,1,60.17,22.03q0,1.191-3.762,2.5-3.262-.6-3.262-1.1a10.411,10.411,0,0,1-3.119-1.4q-2.81-1.428-2.81-1.714-2.667-1.143-2.667-2.191L43,16.411h.143l-.619-2.476,3.738-.953h.167l.143.167q.786-.214.786-.476l.476.166a3.449,3.449,0,0,1,1.548-.476l.167.167q2.381-.428,2.5-.786a23.677,23.677,0,0,0,5.31-.929v.143q2.166-.262,2.167-.619l3.453-.167ZM92.016-5.066H90.373l-.334.357h-.166l-.167-.167h-.5q0,.214-2.81.881H85.73l-.5-.357-.333.357-1-.167-2.643.333-.667-.166h-.333l-1.81.357H76.777l-.809-.191-1.5.357-1.5-.524H71.824l-1,.166q-1.334-.166-1.334-.524l-.5.19a7.583,7.583,0,0,1-2.786-.9l-1.334.357v-.167q-.809,0-1.833,1.4l.167.548-.333,1.047a3.77,3.77,0,0,0,1.666,3.191q1.62,3.191,2.143,3.214l1.334,1.953A4.445,4.445,0,0,0,65.7,10.2q0,2.976,3.453,3.548l2-.524q0,.524.333.524l1.31,4.262,1.667,3.357H74.3l.167,1.238v1.072l-.167.881.334.357q0,2,3.143,2.309h.667a2.891,2.891,0,0,1,1.476-.881q0-1,2-2.5,1.5-.214,1.5-.691l3.809-3.19q3.143-1.238,3.143-2.143,3.975-1.643,3.976-3v-.548q0-2.119-1.667-2.119h-1l-.81.166Q88.063,14.1,87.063,14.1A8.634,8.634,0,0,1,83.9,15.7q-4.667,3.357-5.953,3.357h-.166L76.61,15.7h.166L75.8,11.959h.976l.167-.167.167.167h.166l.333-.334h.167l.166.167,1.5-.357,1.31.19q1.833-.548,1.833-.9l.833.19.143-.19L94.016,7.887h.166l.167.19a10.964,10.964,0,0,1,3.643-1.072H99.3a1.9,1.9,0,0,0,1.167-1.6V4.7q-.024-1.762-1.977-1.762h-.5l-.667.524a78.466,78.466,0,0,0-9.119,1.6H88.04l-.167-.19q-7.262.714-7.786,1.072l-.642-.167-1.834.357q0-.309-1.643-.357h-.333l-2,.524a9.2,9.2,0,0,0-1.167-2.667A14.768,14.768,0,0,0,70.824.434V.267l3.31.881.5-.167a3.7,3.7,0,0,0,2.309.691h.833l.166-.166.167.166h.5l.833-.166q0,.357,1.643.357h1l1.167-.19v.19q.809,0,.809.357l1.667-.19.833.19v-.19l.167-.167,1.643.167h.5l.833-.167.167.167,1.476-.167q5.977.025,5.976-3.738Q96.659-5.59,94.349-5.59a3.822,3.822,0,0,0-2.333.524m17.535-1.119V-2.9l.143.167-.9.31-3.762-.786-.595.166h-1.214a9.867,9.867,0,0,0-4.358-.642h-.881Q94.5-3.4,94.5-.376q.4,2.191,1.071,2.191.024,1.12,5.405,1.119l1.5-.166.738.166.452-.166.905.166,2.119-.166h.143l.143.166.619-.166h.286l.453.309h.167l.9-.309a2.183,2.183,0,0,1,1.643.476l.762,4.238h-.167v.166q.452,4,1.072,4.715h-.167q.167,2.834.6,2.834l-.143.786.143.452V16.6l-.143.167.453,2.81-.143.166v1.1l.452,2.357-.166.953.166.143-.166.166v.476q.429,2.667,2.119,2.667l.738-.167q1.309,0,1.81-2.667l-.143-1.4.309-1.572v-.166l-.166-.143v-.167l.166-.167-.309-1.4v-.166l.143-.143-.143-1.262q-.025-.476.309-.477l-.166-1.1.166-.619a13.673,13.673,0,0,0-.619-3.31l.167-.619-.167-.167V11.72l.167-.143-.167-1.1.167-.476-1.072-5.048V4.815l.166-.167-.166-1.715h.762l.762-.166v.166l.143.143.762-.143.595.143,1.048-.143.453.143.452-.309,1.191.309H126.1l2.857.167L130,2.934l1.048.31,1.357-.167q1.809,0,1.809-1.571,0-1.166-1.643-1.572L130.6.1q-.238-.309-3.6-.643H125.79l-.143.166q0-.214-1.048-.476l-1.214.167-.452-.31H121.29l-.453-.333h-.762l-.6.167-3.024-.477q-.429,0-.738-3.619,0-4.548-3-4.548h-.167q-2.714,0-3,3.619m45.584-.428a25.285,25.285,0,0,0,.31,4.69l-.167.453.31,2.191-.143.738.143.595V2.2l-.143.143.143.738-.31,1.619.31,1.167h-.143l-.167.143.167.453q-.024,1.62-.905,1.619l-.881-.166-.167.166-2.071.429V8.363q-1.358.262-1.357.571l-.453-.143-3.262.595-.619-.143-.428.286q-2.692.286-2.691.738l-2.381-.286-1.047.428v-.143l-1.786.143L135.587-1.614q-.429-4.262-3.429-4.262-2.953.69-2.952,2.643l.143,2.048,2.214,12.477v.143q-5.809,0-5.81,3.524.691,2.953,2.691,2.952a24.083,24.083,0,0,0,4.619-.6l.143.738-.143.143v.143q.047.739.309.738a21.765,21.765,0,0,0,.881,4.548q0,3.668,2.976,3.667.952,0,2.1-1.762l-.286-1.762v-.143l.143-.143a2.363,2.363,0,0,0-.453-1.333v-1.9l-.286-.881.143-.738-.453-2.476q5.358-.737,5.977-1.333h.143l.143.143q4.286-.786,4.929-1.31l.738.143,1.047-.453v.167q1.1,0,1.191-.453l1.786-.428h.9l.453,2.048-.167.595v.715a3.449,3.449,0,0,0,.31,1.619,4.659,4.659,0,0,0-.31,1.9v.31l.167,1.024-.167.143.167.738a15.69,15.69,0,0,1-.6,3.214q0,1.31,1.928,2.072,2.381-.476,2.381-1.9l-.429-1.762V20.1a37.038,37.038,0,0,0,.881-7.477l-.143-1.048h.286l.6.167,2.547-.6.453.143h.143l.143-.143q2.691-.19,2.691-1.619v-.6q0-1.452-2.238-1.738h-.143l-.143.143-.619-.143h-.143l-1.048.143-.286-.31-1.5.167V6.458l.453-1.619-.143-.6V3.958l.286-.452V2.482L160.66.72q.451,0,.452-2.643V-4.257l-.309-.309.452-1.762q-.6-3.072-2.69-3.072-3.429.406-3.429,2.786m32.941,1.548h-1.643l-.333.357h-.166l-.167-.167h-.5q0,.214-2.81.881h-.667l-.5-.357-.333.357-1-.167-2.643.333-.667-.166h-.333l-1.81.357h-1.667l-.809-.191-1.5.357-1.5-.524h-1.143l-1,.166q-1.334-.166-1.334-.524l-.5.19a7.584,7.584,0,0,1-2.785-.9l-1.334.357v-.167q-.809,0-1.833,1.4l.167.548-.334,1.047A3.77,3.77,0,0,0,160.6,1.315q1.62,3.191,2.143,3.214l1.334,1.953a4.445,4.445,0,0,0-2.31,3.715q0,2.976,3.453,3.548l2-.524c0,.349.111.524.333.524l1.31,4.262,1.667,3.357h-.167l.167,1.238v1.072l-.167.881.333.357q0,2,3.143,2.309h.667a2.891,2.891,0,0,1,1.476-.881q0-1,2-2.5,1.5-.214,1.5-.691l3.81-3.19q3.143-1.238,3.143-2.143,3.976-1.643,3.977-3v-.548q0-2.119-1.667-2.119h-1l-.809.166q-2.81,1.786-3.81,1.786a8.634,8.634,0,0,1-3.166,1.6q-4.667,3.357-5.953,3.357h-.166L172.671,15.7h.166l-.976-3.738h.976l.167-.167.166.167h.167l.333-.334h.167l.166.167,1.5-.357,1.31.19q1.834-.548,1.834-.9l.833.19.143-.19,10.452-2.834h.167l.167.19a10.964,10.964,0,0,1,3.643-1.072h1.31a1.9,1.9,0,0,0,1.167-1.6V4.7q-.025-1.762-1.977-1.762h-.5l-.667.524a78.464,78.464,0,0,0-9.119,1.6H184.1l-.166-.19q-7.263.714-7.786,1.072l-.643-.167-1.833.357q0-.309-1.643-.357h-.333l-2,.524a9.2,9.2,0,0,0-1.167-2.667,14.766,14.766,0,0,0-1.643-3.19V.267l3.31.881.5-.167a3.7,3.7,0,0,0,2.31.691h.833L174,1.506l.167.166h.5l.833-.166q0,.357,1.643.357h1l1.167-.19v.19q.809,0,.809.357l1.667-.19.834.19v-.19l.166-.167,1.643.167h.5l.833-.167.167.167,1.476-.167q5.977.025,5.977-3.738-.667-3.714-2.976-3.714a3.822,3.822,0,0,0-2.333.524m1.582-5.191a3.564,3.564,0,0,0,1.191,2.6q1.714.739,1.714,1.119l1.524.976.167.143a12.765,12.765,0,0,0,1.333,4.358l-.166.976V.7l.166.167-.166.167V2.148l.333.5v.143l-.167.81h.167a32.031,32.031,0,0,1,1.357,5v.166l-.167.143.167,1.31h-1.357q-2.691.763-2.691,2.405v.166q0,1.691,2.191,2.738l2.548-.167a1.541,1.541,0,0,1,1.19,1.453v2.095l.667,3.381-.166.976q.524,3.857,2.214,3.857h.5a2.082,2.082,0,0,0,2.214-2.1l-.357-1.285.166-.167v-.952l-.333-.5v-.642l.333-2.572v-.166l-.333-1.286V16.173q.69,0,.691.309,3.38.239,3.381.667,7.119.857,7.12,1.428,1.69.025,1.69.333,2.429.477,2.548.81a55.313,55.313,0,0,1,7.643,3.048h.833l.858-.809v-.786l-.5-.643a12.531,12.531,0,0,1-3.072-1.452,20.549,20.549,0,0,1-4.238-1.452,15.25,15.25,0,0,1-4.4-1.929,52.944,52.944,0,0,1-6.429-2.1h-.19l-.166.143q0-.286-.667-.31v-.166a11.2,11.2,0,0,0,3.905-1.929q2.358-.928,2.357-2.429l.524-.143q.809,0,1.69-4.524-.643-2.571-1.357-2.572L214.421-.09l-3.905-2.6a6.465,6.465,0,0,0-2.548-1.6q-3.334-2.262-4.072-2.262A11.056,11.056,0,0,0,200.349-8.8a7.508,7.508,0,0,0-2.547-1.6q-2.906-3.072-4.739-3.072-2.715,0-3.4,3.215M207.635.7l3.048,1.619q1,1.453,1.691,1.452V5.053l-.5,1.119v.166l.167.167-.5.643q-.857,0-.858.809l-2.714,1.619q-1.047.952-4.572.952h-.524l.19-1.452-.524-1.762h.167l-.833-5.476.166-.167-.166-.476V1.029l.166-.167-.166-.952.166-1.31.167-.143Z" transform="translate(27.498 13.662)" fill="#fff"/>
        </g>
        <g id="Group_1115-2" data-name="Group 1115" transform="translate(0 0)">
          <path id="Path_1781-2" data-name="Path 1781" d="M0-5.22a3.564,3.564,0,0,0,1.191,2.6Q2.9-1.887,2.9-1.505L4.429-.53,4.6-.386A12.762,12.762,0,0,0,5.929,3.971l-.167.976v.786l.167.166-.167.167V7.185l.334.5v.143l-.167.81H6.1a32.086,32.086,0,0,1,1.357,5V13.8l-.167.143.167,1.31H6.1q-2.691.762-2.691,2.4v.167q0,1.691,2.191,2.738L8.143,20.4a1.541,1.541,0,0,1,1.191,1.452v2.1L10,27.329l-.166.976q.523,3.857,2.214,3.858h.5a2.082,2.082,0,0,0,2.214-2.1l-.357-1.286.167-.166v-.953l-.333-.5V26.52l.333-2.572v-.167L14.239,22.5V21.21q.69,0,.691.31,3.38.238,3.381.667,7.119.857,7.12,1.428,1.69.025,1.69.334,2.428.476,2.547.809a55.327,55.327,0,0,1,7.643,3.048h.833L39,27V26.21l-.5-.643a12.51,12.51,0,0,1-3.071-1.452,20.517,20.517,0,0,1-4.238-1.452,15.25,15.25,0,0,1-4.4-1.929,52.946,52.946,0,0,1-6.429-2.1h-.19L20,18.781q0-.286-.667-.31V18.3a11.2,11.2,0,0,0,3.905-1.929q2.357-.928,2.357-2.429l.524-.143q.809,0,1.691-4.524-.644-2.572-1.358-2.572l-1.69-1.762-3.9-2.6A6.465,6.465,0,0,0,18.31.756q-3.334-2.262-4.072-2.262a11.06,11.06,0,0,0-3.548-2.262,7.5,7.5,0,0,0-2.548-1.6Q5.238-8.435,3.4-8.435.69-8.435,0-5.22M17.977,5.733l3.048,1.619q1,1.453,1.69,1.452V10.09l-.5,1.119v.166l.166.167-.5.643q-.858,0-.858.809L18.31,14.614q-1.048.952-4.572.952h-.524l.19-1.452-.524-1.762h.166l-.833-5.476.166-.167-.166-.476V6.066l.166-.167-.166-.952.166-1.31.167-.143ZM34.2-8.554q0,1.977,2.358,6.548A12.466,12.466,0,0,0,38.3,1.851q0,1.429,1.857,2.072,2.095-.357,2.1-1.929V1.709q-1.12-4.737-1.857-5.667-.357-2.072-.738-2.071l.119-.143q-.191-1.334-.357-1.334-.406-4.024-2.357-4.024Q34.2-11.221,34.2-8.554m3.953,13.81q0-.286-7.548-.428A2.757,2.757,0,0,0,27.893,7.8q.477,3.119,2.358,3.119l7.286.286-.119.738v1.333l.119.167-.119.143v.881l.119.595v.167l-.119.143.119,2.976L37.3,21.019l.119,1.786-.238.286.119,2.238q-.071,2.381-.5,2.381l-.976-.286h-.5l-.143.143v-.143l-2.714-.6-.881.143-1.6-.595-.357.143-1.381-.286-1.357.143-1-.143q-1.881,0-2.357,3.119a2.848,2.848,0,0,0,2.5,2.976,2.391,2.391,0,0,0,1.358-.453l1.119.286.5-.143h.738l.238.31,2.476-.31.381.143.119-.143q.357-.023.357.31l4.834.286,1-.166.738.166,1.119-.166,1.119.166,2.119-.166.476.166,5.714-.6q3.6-.523,3.6-1.476v-.6a1.49,1.49,0,0,0-1-1.5l-3.715.9-3.714-.309-.5.143q0-.167-1-.428l-.738.143a2.492,2.492,0,0,0-1.357-.31l-.5.167h-.119a8.919,8.919,0,0,0,.619-3.715v-1.19l.119-.762-.119-.143.119-2.524-.238-.286.119-.167-.119-1.023.357-2.524-.119-.9.119-1.929V12.542l-.119-1.024h.119v-.309l1.381.143,1.476-.428.5.286h.119l.119-.143.5.143.738-.143h.143l.357.286h.881l.357-.286h1.238a3.169,3.169,0,0,0,1.5-2.238q-.548-2.809-1.976-2.81h-.619l-.881.143-.381-.31-.738.31-.238-.31H45.608l-.619-.143-.119.143-2.857-.428-.381.143a3.888,3.888,0,0,0-1.6-.9,3.161,3.161,0,0,0-1.881.595M62.286-4.7l.166,1.024A18.835,18.835,0,0,1,64.286.256,2.3,2.3,0,0,0,62.6.947h-.9l-.31-.333Q57.1,1.042,57.1,1.637l-.595-.19-2,.691V1.971q-4.834,1.691-5.953,3.238a3.182,3.182,0,0,0-1.833,3.239v.333q.643,1.214.929,1.214,0,1.071,5.476,2.381h.167l1.072-.167q0,.286,1.524.667l.619-.167h.452l9.762,1.881h.167l.143-.166,2.762.5.6-.166,3.833.691.143-.167,4.119.833.167-.167,1.072.167v.524a1.944,1.944,0,0,0-2,1.357,15.936,15.936,0,0,0-3.19,2.048,75.232,75.232,0,0,1-14.358,7.691v-.19a12.692,12.692,0,0,1-3.524,1.548H56.5a8.207,8.207,0,0,0-.619-3.762h.143a15.624,15.624,0,0,0-1.977-5.619h.143q-.667-3.072-2.119-3.072h-.929a2.134,2.134,0,0,0-1.072,1.715v1.19l.619,1.024a10.038,10.038,0,0,0,.762,3.738v.167l-.167.19L51.9,27.9v.167l-.143.166q1.119,4.1,2.6,4.1a1.752,1.752,0,0,0,1.524-.857h.905a5.359,5.359,0,0,0,3.381-1.191l8.691-3.571v.166q1.834-.38,1.834-.857a31.026,31.026,0,0,0,9.024-4.6q1.357-.333,1.357-.691,4.286-3.643,4.286-4.786a3.079,3.079,0,0,0-1.072-1.524h-.905l-2.6-.524H80.62l-.143.167q-.214-.429-2.762-.667l-.453.166q0-.38-2.286-.69h-.166l-.143.166-1.69-.5-.6.167a32.214,32.214,0,0,0-5.048-1.357h-.143l-.167.166q-.667-.666-4.119-1.357l-7.953-2.4V7.59l4.6-1.024.9.167h1.381L62,6.566q0,.358.762.357l.453-.19.595.19.619-.19.619.19H66.12l1.524-.19,1.381.19h1.214q2.738-.928,2.738-3.262V3.495a6.861,6.861,0,0,0-.6-2.215q-.763,0-.762-.857a9.481,9.481,0,0,1-2-2.881q-1.286-5.809-3.81-5.81-3.524.262-3.524,3.571M108.7-.03h-1.643l-.333.357h-.166l-.167-.167h-.5q0,.214-2.81.881h-.667l-.5-.357-.333.357-1-.166-2.643.333-.667-.167h-.333l-1.81.357H93.465l-.809-.19-1.5.357-1.5-.524H88.512l-1,.167q-1.334-.167-1.334-.524l-.5.191A7.588,7.588,0,0,1,82.893-.03L81.559.328V.161q-.809,0-1.833,1.4l.167.548-.334,1.047a3.77,3.77,0,0,0,1.667,3.191q1.62,3.191,2.143,3.215L84.7,11.519a4.445,4.445,0,0,0-2.31,3.715q0,2.976,3.453,3.548l2-.524c0,.349.111.524.333.524l1.31,4.262L91.155,26.4h-.167l.167,1.238V28.71l-.167.881.333.357q0,2,3.143,2.31h.667a2.89,2.89,0,0,1,1.476-.881q0-1,2-2.5,1.5-.214,1.5-.691l3.81-3.19q3.143-1.238,3.143-2.143,3.976-1.643,3.976-3V19.3q0-2.119-1.666-2.119h-1l-.809.166q-2.81,1.786-3.81,1.786a8.638,8.638,0,0,1-3.166,1.6q-4.667,3.357-5.953,3.357h-.166L93.3,20.734h.166L92.488,17h.976l.167-.167L93.8,17h.167l.333-.333h.167l.166.166,1.5-.357,1.31.19q1.834-.548,1.834-.905l.833.19.143-.19L110.7,12.924h.167l.166.19a10.957,10.957,0,0,1,3.643-1.072h1.31a1.9,1.9,0,0,0,1.167-1.6V9.733q-.025-1.762-1.977-1.762h-.5l-.667.524a78.587,78.587,0,0,0-9.119,1.6h-.167l-.166-.19q-7.263.714-7.786,1.072l-.643-.167-1.833.357q0-.309-1.643-.357h-.333l-2,.524a9.2,9.2,0,0,0-1.167-2.667,14.767,14.767,0,0,0-1.643-3.19V5.3l3.31.881.5-.166a3.7,3.7,0,0,0,2.31.69h.833l.166-.166.167.166h.5l.833-.166q0,.357,1.643.357h1l1.167-.191V6.9q.809,0,.809.357l1.667-.19.833.19v-.19l.166-.166,1.643.166h.5l.833-.166.167.166,1.476-.166q5.977.024,5.977-3.739-.667-3.714-2.976-3.714A3.821,3.821,0,0,0,108.7-.03" transform="translate(0 11.53)" fill="#ffce39"/>
        </g>
      </g>
    </g>
  </g>
</svg>
