<svg xmlns="http://www.w3.org/2000/svg" width="18" height="19.766" viewBox="0 0 18 19.766">
  <path id="download" d="M265.055,76.659c2.076,0,4.152.005,6.228,0a2.69,2.69,0,0,0,2.723-2.439c.083-1.015.048-2.042.031-3.063a.9.9,0,0,0-.672-.867.984.984,0,0,0-1.294,1c-.007.835,0,1.671,0,2.506a.8.8,0,0,1-.907.894l-12.189,0c-.645,0-.931-.289-.931-.939q0-1.217,0-2.434a1.055,1.055,0,0,0-.271-.759.987.987,0,0,0-1.706.7q-.01,1.289,0,2.579a2.77,2.77,0,0,0,2.838,2.827Zm-.983-8.715c-.112-.107-.177-.166-.239-.228-.539-.539-1.071-1.086-1.62-1.614a.986.986,0,1,0-1.368,1.417q1.741,1.751,3.493,3.492a.964.964,0,0,0,1.433,0q1.764-1.745,3.508-3.511a.987.987,0,1,0-1.416-1.372c-.541.537-1.078,1.078-1.617,1.617-.054.054-.112.1-.209.194v-.285q0-4.55,0-9.1c0-.251.011-.5-.006-.754a.983.983,0,1,0-1.959.173q0,4.805,0,9.611Z" transform="translate(-256.06 -56.896)" fill="#fdd300"/>
</svg>
