<svg xmlns="http://www.w3.org/2000/svg" width="18" height="20.684" viewBox="0 0 18 20.684">
  <path id="share" d="M249.256,163.163a8.36,8.36,0,0,1-1.053-.32,3.345,3.345,0,0,1-1.812-4.072c.061-.191.01-.264-.145-.359q-2.6-1.6-5.2-3.214c-.05-.031-.1-.059-.161-.093a3.61,3.61,0,0,1-1.223.849,3.388,3.388,0,0,1-4.627-2.635,1,1,0,0,0-.038-.134v-.727c.033-.15.062-.3.1-.451a3.382,3.382,0,0,1,5.638-1.611.223.223,0,0,0,.335.041q2.6-1.624,5.213-3.231a.213.213,0,0,0,.112-.3,3.382,3.382,0,1,1,3.834,2.285,3.323,3.323,0,0,1-3-.923l-.127-.119-5.561,3.446a3.44,3.44,0,0,1,0,2.457l5.558,3.444c.114-.1.225-.209.342-.308a3.383,3.383,0,1,1,2.655,5.941.72.72,0,0,0-.112.036Zm.364-1.239a2.148,2.148,0,1,0-2.154-2.13A2.146,2.146,0,0,0,249.62,161.924Zm-2.154-16.065a2.147,2.147,0,1,0,2.142-2.141A2.148,2.148,0,0,0,247.466,145.859Zm-9.077,4.816a2.146,2.146,0,1,0,2.143,2.161A2.141,2.141,0,0,0,238.389,150.675Z" transform="translate(-235 -142.479)" fill="#fdd300"/>
</svg>
