<svg xmlns="http://www.w3.org/2000/svg" xmlns:xlink="http://www.w3.org/1999/xlink" width="375.258" height="280.299" viewBox="0 0 375.258 280.299">
  <defs>
    <linearGradient id="linear-gradient" x1="0.405" y1="1.48" x2="0.545" y2="0.171" gradientUnits="objectBoundingBox">
      <stop offset="0" stop-color="#ffd65a"/>
      <stop offset="1" stop-color="#1fad52"/>
    </linearGradient>
    <linearGradient id="linear-gradient-2" x1="0.454" y1="0.784" x2="0.416" y2="0.302" xlink:href="#linear-gradient"/>
    <linearGradient id="linear-gradient-3" x1="0.567" y1="1.423" x2="0.484" y2="0.257" xlink:href="#linear-gradient"/>
  </defs>
  <g id="front-page-swirl" transform="translate(0.258 -252.578)">
    <path id="Path_1783" data-name="Path 1783" d="M-779,9608.033s67.406,92.953,173.506,66.792,201.52,42.034,201.52,42.034V9575.711s-71.72,63.039-182.163,39.44c-12.7-3.411-14.578-.21-19.357,0-11.7.507-19.918,4.852-61.423,5.136C-722.008,9618.358-779,9584.653-779,9584.653Z" transform="translate(778.742 -9323.133)" fill="url(#linear-gradient)"/>
    <path id="Path_1784" data-name="Path 1784" d="M-779,9602.119s67.406,92.953,173.506,66.792,201.52,42.034,201.52,42.034V9569.8s-82.244,32.542-192.688,8.942c-12.7-3.41-7.86.944-16.81,12.346-11.218,9.809-27.27,11.33-64.117-7.117C-722.6,9562.063-779,9518.975-779,9518.975Z" transform="translate(778.973 -9246.148)" fill="url(#linear-gradient-2)"/>
    <path id="Path_1785" data-name="Path 1785" d="M-779,9585.524s67.406,108.212,173.506,82.051,201.52,42.034,201.52,42.034V9568.461s-36.4-10.317-111.794-27.5c-56.219-8.42-81.708,37.348-113.36,40.205-32.427,3.289-63.939-25.234-78.684-53.027-34.129-35.283-71.189-17.5-71.189-17.5Z" transform="translate(778.973 -9176.732)" fill="url(#linear-gradient-3)"/>
  </g>
</svg>
