<svg xmlns="http://www.w3.org/2000/svg" width="71.531" height="20.456" viewBox="0 0 71.531 20.456">
  <g id="kA0ePE" transform="translate(0 -0.001)">
    <g id="Group_1990" data-name="Group 1990" transform="translate(0 0.001)">
      <path id="Path_2629" data-name="Path 2629" d="M356.837,361.9l9.672,5.553.486.276.75.423,6.226,3.625c-.182.109-.275.167-.369.222l-5.868,3.412a1.9,1.9,0,0,0-.661.387q-3.4,1.945-6.81,3.89-1.75,1-3.5,1.992c-.359.022-.368-.21-.367-.477.006-1.329.017-2.659-.007-3.988-.006-.325-.038-.622.231-.858l2.814-1.691v1.773l8.1-4.663-8.062-4.654v1.5l-3.065-1.58c0-1.571.009-3.142-.026-4.712C356.375,361.939,356.565,361.914,356.837,361.9Z" transform="translate(-305.577 -361.511)" fill="#028617"/>
      <path id="Path_2630" data-name="Path 2630" d="M230.007,380.516c.059.766.059.767-.686.767-.411,0-.823-.015-1.233,0-.256.011-.375-.054-.372-.336.017-1.605.022-3.211.03-4.816a.908.908,0,0,1,.067.546c0,1.064,0,2.128,0,3.193,0,1.362,0,1.362,1.378,1.3.018,0,.035-.035.1-.1-.176,0-.3.007-.428,0-.815-.056-.939-.188-.939-.991,0-.821-.008-1.643,0-2.464a16.644,16.644,0,0,1,.1-2.76c-.259.058-.171.28-.292.368a1.928,1.928,0,0,0-3.068-.794,1.327,1.327,0,0,0-.468,1.088c.015,1.759-.005,3.518.016,5.276,0,.4-.114.524-.505.5-.5-.031-1.011-.02-1.515,0-.268.008-.356-.086-.355-.355.008-2.488,0-4.977.005-7.465a1.2,1.2,0,0,1,.648-1.1,1.914,1.914,0,0,1,.4-.2,2.838,2.838,0,0,1,1.08-.254c.541.077.02.646.3.9,1.825-1.294,3.295-1.24,5.1.233.272.222.319-.018.426-.118a4.1,4.1,0,0,1,4.939-.357,2.235,2.235,0,0,1,.927,1.09c-.07.138-.361.289-.223.38.433.286.225.682.23,1.016.026,1.571.011,3.142.011,4.714,0,1.375,0,1.363-1.39,1.312-.354-.013-.452-.162-.449-.477q.025-2.411.037-4.823c0-.163.069-.362-.122-.5-.04.055-.078.084-.079.112-.008,1.814-.009,3.628-.02,5.442,0,.281.14.349.385.343a7.827,7.827,0,0,1,1.066.006c.53.06.7-.116.7-.669-.027-2.151,0-4.3,0-6.453a1.221,1.221,0,0,1,.113.707c0,2-.014,4,.013,6,.006.445-.141.545-.543.516a9.781,9.781,0,0,0-1.346,0c-.386.026-.507-.089-.5-.493.024-1.683.01-3.366.01-5.049,0-1.067-.414-1.6-1.345-1.736a1.787,1.787,0,0,0-2.2,1.318c-.348,0-.161.27-.162.392-.016,1.6-.012,3.2-.008,4.8,0,.065-.06.171.067.2Z" transform="translate(-210.707 -368.554)" fill="#048719"/>
      <path id="Path_2631" data-name="Path 2631" d="M189.66,360.62a9.016,9.016,0,0,1,4.233,1.155c.288.158.37.291.178.6-.827,1.333-.643,1.607-2.224.807a5.271,5.271,0,0,0-2.12-.5,2.347,2.347,0,0,0-1.453.329,1.135,1.135,0,0,0-.032,1.987,9.282,9.282,0,0,0,2.329.951,12.256,12.256,0,0,1,2.511,1.1,3.4,3.4,0,0,1,.021,5.612,5.84,5.84,0,0,1-3.646.856A8.912,8.912,0,0,1,184.938,372c-.275-.18-.394-.336-.142-.649a6.963,6.963,0,0,0,.666-1.036c.164-.3.291-.324.592-.128a7.118,7.118,0,0,0,4.12,1.261,2.2,2.2,0,0,0,1.17-.342,1.242,1.242,0,0,0,.037-2.138,9.3,9.3,0,0,0-2.336-.933,11.788,11.788,0,0,1-2.412-1.044,3.315,3.315,0,0,1,.316-5.765A5.649,5.649,0,0,1,189.66,360.62Z" transform="translate(-184.49 -360.611)" fill="#048618"/>
      <path id="Path_2632" data-name="Path 2632" d="M281.917,377.934c0,.974-.01,1.948.006,2.922.005.311-.075.435-.407.421a5.373,5.373,0,0,1-1.67-.044c-.67-.273-1.163.1-1.73.177a5.763,5.763,0,0,1-2.447-.146,2.6,2.6,0,0,1-1.987-2.435,2.677,2.677,0,0,1,1.74-2.847,6.229,6.229,0,0,1,3.643-.277c.373.075.4-.043.394-.344-.015-.69-.5-1.152-1.4-1.246a7.046,7.046,0,0,0-2.722.266,3.606,3.606,0,0,0-.375.115c-.216.089-.286.034-.312-.206-.143-1.331.233-1.893,1.556-2.215a6.825,6.825,0,0,1,3.117-.047,3,3,0,0,1,2.553,2.93c.057.989.011,1.984.011,2.976Zm-2.7-.033c-.087-.215.188-.6-.281-.7a3.73,3.73,0,0,0-2.2.065,1.153,1.153,0,0,0-.434,1.882,1.743,1.743,0,0,0,1.9.2A1.35,1.35,0,0,0,279.216,377.9Z" transform="translate(-247.26 -368.544)" fill="#048618"/>
      <path id="Path_2633" data-name="Path 2633" d="M335.665,364.452c-.255.476-.518.948-.761,1.431a.424.424,0,0,1-.45.248c-.411-.011-.825.023-1.234-.012s-.5.132-.491.511c.022,1.2.007,2.394.008,3.591,0,1.105.5,1.482,1.573,1.193.2-.053.388-.123.666-.212,0,.532.014,1.025-.005,1.516-.011.288-.268.392-.486.488a3.748,3.748,0,0,1-2.527.182,2.12,2.12,0,0,1-1.583-1.967,26.263,26.263,0,0,1-.054-3.027c-.011-1.777.011-3.554-.007-5.33a1.858,1.858,0,0,1,1.084-1.805c.412-.213.829-.415,1.339-.67,0,1.02,0,1.96,0,2.9,0,.2-.078.417.109.581.1.237.318.148.49.151.577.009,1.156.014,1.733,0A.686.686,0,0,1,335.665,364.452Z" transform="translate(-287.189 -360.589)" fill="#038617"/>
      <path id="Path_2634" data-name="Path 2634" d="M309.46,380.819c.124.476.032.741-.552.675a8.542,8.542,0,0,0-1.346-.005c-.283.013-.4-.058-.395-.367.011-2.375,0-4.751.007-7.126,0-.7.5-1.057,1.017-1.366.38-.227.845-.587,1.217-.412.264.125.051.721.081,1.1.017.214,0,.431,0,.668.254-.065.293-.276.4-.413a3.534,3.534,0,0,1,2.71-1.374c.255-.017.4.04.373.326-.007.074,0,.15,0,.224a3.984,3.984,0,0,1-.068,1.386c-.2.475-.831.269-1.261.409a3.2,3.2,0,0,0-2.156,2.686c-.2.1-.147.283-.148.443q-.005,1.368,0,2.736C309.34,380.558,309.313,380.715,309.46,380.819Z" transform="translate(-270.875 -368.755)" fill="#028617"/>
      <path id="Path_2635" data-name="Path 2635" d="M393.124,378.238l-.75-.423a2.548,2.548,0,0,0,.086-1.216c-.009-.428.075-.491.457-.268,2.082,1.216,4.176,2.41,6.264,3.614,1.079.622,2.153,1.25,3.306,1.919-1.3.748-2.522,1.453-3.746,2.159q-2.889,1.668-5.779,3.336c-.126.072-.25.225-.4.155-.2-.092-.082-.3-.089-.453-.017-.392-.017-.785-.023-1.178a1.889,1.889,0,0,1,.661-.387c.02.267.04.533.064.855l7.789-4.493-7.842-4.52Z" transform="translate(-330.956 -371.6)" fill="#e3b40b"/>
      <path id="Path_2636" data-name="Path 2636" d="M355.771,387.271c0-.972.008-1.945,0-2.917,0-.364.017-.536.445-.3.782.437,1.591.826,2.4,1.22a.659.659,0,0,1,.425.7c-.027.8-.024,1.608,0,2.411a.7.7,0,0,1-.4.72c-.815.456-1.623.928-2.414,1.423-.412.258-.455.1-.449-.284.017-.991.006-1.982.006-2.973Z" transform="translate(-305.143 -377.059)" fill="#e4b306"/>
      <path id="Path_2637" data-name="Path 2637" d="M370.678,391.976c0-1.678.005-3.248,0-4.818,0-.31.076-.368.346-.211q1.939,1.13,3.885,2.247c.183.1.3.19.041.338Z" transform="translate(-315.654 -379.116)" fill="#e4b408"/>
      <path id="Path_2638" data-name="Path 2638" d="M258.247,419.128c0-.356,0-.712,0-1.068.005-.554.19-.738.736-.743.037,0,.1-.015.108,0,.258.639.545.05.808.01.284-.043.6-.12.818.052a.849.849,0,0,0,1.16.035,1.145,1.145,0,0,1,1.717,1.071c.013.618-.022,1.237.011,1.854.024.437-.245.363-.5.369-.273.006-.521.039-.494-.382.033-.5.009-1.011,0-1.517,0-.363-.158-.639-.542-.66a.6.6,0,0,0-.652.628,12.889,12.889,0,0,0,0,1.572c.023.387-.2.375-.455.357-.239-.016-.547.106-.522-.349.028-.5,0-1.011.007-1.517.006-.4-.154-.675-.564-.69a.6.6,0,0,0-.636.642,15.645,15.645,0,0,0-.005,1.572c.021.4-.23.351-.469.338s-.557.124-.531-.336C258.265,419.953,258.246,419.54,258.247,419.128Z" transform="translate(-236.375 -400.538)" fill="#0b871c"/>
      <path id="Path_2639" data-name="Path 2639" d="M315.427,414.686c0-.417-.007-.783,0-1.149a.739.739,0,0,1,.839-.581c.2.072.122.252.123.387q.008,1.938,0,3.876c0,.15.094.4-.135.423-.26.027-.655.174-.774-.081-.152-.327-.217-.151-.369-.057a1.469,1.469,0,0,1-1.808-.189,2.033,2.033,0,0,1-.248-2.348,1.467,1.467,0,0,1,1.7-.658A4.45,4.45,0,0,1,315.427,414.686Zm-.837,2.243a.917.917,0,0,0,.828-.952.87.87,0,0,0-.849-.917.851.851,0,0,0-.819.937A.876.876,0,0,0,314.59,416.928Z" transform="translate(-274.841 -397.499)" fill="#09861b"/>
      <path id="Path_2640" data-name="Path 2640" d="M229.672,416.754c.112,1.042-.017,1.178-1.185,1.343a2.341,2.341,0,0,1-2.434-1.143,2.544,2.544,0,0,1,.307-2.741,2.648,2.648,0,0,1,3.206-.353c.173.115.34.229.117.417-.165.139-.132.585-.547.366a2.689,2.689,0,0,0-.571-.223,1.27,1.27,0,0,0-1.455.457,1.451,1.451,0,0,0-.127,1.639,1.356,1.356,0,0,0,1.377.681A2.856,2.856,0,0,0,229.672,416.754Z" transform="translate(-213.492 -397.881)" fill="#09861b"/>
      <path id="Path_2641" data-name="Path 2641" d="M281.336,413.121c.407-.194.617-.14.562.383-.04.388-.008.784-.008,1.224.308-.086.486-.344.781-.4,1.128-.213,2,.761,1.825,2.058a1.506,1.506,0,0,1-2.339,1.14c-.118-.07-.162-.2-.3.053-.17.324-.56.1-.855.117a1.29,1.29,0,0,0,.1-.653c0-1.1,0-2.192,0-3.288C281.1,413.507,281.088,413.269,281.336,413.121Zm1.4,3.861a.884.884,0,0,0,.825-.944.836.836,0,1,0-1.663.014A.88.88,0,0,0,282.74,416.982Z" transform="translate(-252.428 -397.558)" fill="#09861b"/>
      <path id="Path_2642" data-name="Path 2642" d="M340.154,419.59c0,.206.015.413,0,.617s.124.486-.1.556c-.26.082-.629.176-.83-.071-.17-.208-.244-.078-.351-.01a1.442,1.442,0,0,1-.64.19,1.09,1.09,0,0,1-1.27-.91,1.063,1.063,0,0,1,.983-1.2,2.691,2.691,0,0,1,.837-.006c.123.016.314.164.373-.066a.383.383,0,0,0-.225-.416,1.554,1.554,0,0,0-1.039-.065c-.191.026-.464.337-.583-.044-.11-.352.047-.595.452-.676a3.638,3.638,0,0,1,1.223-.072,1.2,1.2,0,0,1,1.144,1.169c.033.333.006.672.006,1.008Zm-1.744.65a.712.712,0,0,0,.788-.61c.028-.434-.332-.35-.551-.37-.352-.032-.715.055-.752.488C337.864,420.1,338.143,420.214,338.41,420.24Z" transform="translate(-291.877 -400.64)" fill="#09861b"/>
      <path id="Path_2643" data-name="Path 2643" d="M296.675,419.066a1.764,1.764,0,0,1,1.85-1.711,1.783,1.783,0,0,1,1.81,1.76,1.819,1.819,0,0,1-1.9,1.745A1.756,1.756,0,0,1,296.675,419.066Zm2.7.065a.882.882,0,0,0-.885-.944.856.856,0,0,0-.875.893.9.9,0,0,0,.831.95A.874.874,0,0,0,299.376,419.131Z" transform="translate(-263.476 -400.616)" fill="#0b871c"/>
      <path id="Path_2644" data-name="Path 2644" d="M246.307,419.557a5.9,5.9,0,0,1,0,.617c-.022.208.13.527-.114.6s-.611.175-.825-.1c-.175-.221-.254-.022-.358.027a1.543,1.543,0,0,1-1.089.122.96.96,0,0,1-.8-.948.981.981,0,0,1,.694-1.037,2.29,2.29,0,0,1,1.162-.077c.113.017.277.128.342-.045a.349.349,0,0,0-.152-.393c-.354-.269-.742-.15-1.132-.115-.18.016-.435.352-.55-.017a.481.481,0,0,1,.408-.7,3.85,3.85,0,0,1,1.223-.086,1.22,1.22,0,0,1,1.19,1.249c.021.3,0,.6,0,.9Zm-1.512-.313c-.36.05-.726.077-.731.534,0,.358.267.455.569.461a.691.691,0,0,0,.738-.666C245.337,419.166,244.975,419.353,244.8,419.244Z" transform="translate(-225.708 -400.641)" fill="#09861b"/>
      <path id="Path_2645" data-name="Path 2645" d="M193.312,419.19a1.692,1.692,0,1,1,3.382.067,1.724,1.724,0,0,1-1.731,1.693A1.7,1.7,0,0,1,193.312,419.19Zm.515-.013a1.186,1.186,0,1,0,2.367.079,1.265,1.265,0,0,0-1.154-1.335A1.2,1.2,0,0,0,193.827,419.178Z" transform="translate(-190.592 -400.706)" fill="#13861f"/>
      <path id="Path_2646" data-name="Path 2646" d="M184.555,416.211q0-.506,0-1.011c0-.219.06-.474-.3-.458-.113.005-.154-.081-.16-.186-.008-.125.024-.246.164-.239.364.016.291-.24.314-.453a.921.921,0,0,1,1.121-.952c.192.016.4.017.393.284-.012.293-.242.161-.383.156-.295-.01-.522.07-.6.379-.093.351-.11.633.411.6.171-.012.511-.2.531.171.019.35-.307.267-.507.248-.376-.036-.49.107-.477.475.025.673.011,1.348.006,2.022,0,.17.073.394-.235.4-.348.012-.263-.237-.267-.426C184.551,416.885,184.556,416.548,184.555,416.211Z" transform="translate(-184.089 -397.479)" fill="#13861f"/>
      <path id="Path_2647" data-name="Path 2647" d="M264.073,378.3c0,2.151-.028,4.3,0,6.453.007.554-.167.729-.7.669a7.826,7.826,0,0,0-1.066-.006c-.246.006-.387-.062-.385-.343.01-1.814.012-3.628.02-5.443,0-.029.039-.057.079-.112.191.134.122.333.122.5q-.011,2.411-.037,4.823c0,.314.094.464.449.477,1.39.052,1.39.063,1.39-1.312,0-1.571.014-3.143-.011-4.714-.005-.333.2-.73-.23-1.016-.138-.091.153-.241.223-.38C264.011,378.014,263.923,378.2,264.073,378.3Z" transform="translate(-238.973 -372.789)" fill="#018007"/>
      <path id="Path_2648" data-name="Path 2648" d="M209.346,418.333a1.652,1.652,0,0,1,1.02-.747c.123-.019.28-.074.3.126.018.143.047.338-.148.372-1.154.2-1.2,1.062-1.18,1.961,0,.205,0,.411,0,.616.006.183-.056.276-.257.271-.167,0-.233-.071-.233-.233,0-.934,0-1.867,0-2.8a.294.294,0,0,1,.308-.321c.268-.027.161.186.18.311A4.183,4.183,0,0,1,209.346,418.333Z" transform="translate(-201.552 -400.764)" fill="#09861b"/>
      <path id="Path_2649" data-name="Path 2649" d="M329.523,417.705c.063-.154.2-.127.322-.13.082.16.208.319.378.175.12-.1-.094-.152-.145-.233.227-.113.341-.076.338.211q-.015,1.4,0,2.806c0,.239-.076.372-.318.316-.224-.052-.639.185-.645-.193a13,13,0,0,1,.067-2.945q0,1.038,0,2.075c0,.224,0,.449,0,.673,0,.322.247.269.444.271.124,0,.316.019.291-.164-.039-.286-.255-.082-.395-.1a.226.226,0,0,1-.184-.368,3.933,3.933,0,0,0,.142-1.921C329.828,418.015,329.806,417.744,329.523,417.705Zm.716.464-.07.023V420.1l.07.005Z" transform="translate(-286.551 -400.689)" fill="#13861f"/>
      <path id="Path_2650" data-name="Path 2650" d="M356.332,361.19c-.272.017-.462.042-.453.431.035,1.57.022,3.141.026,4.712-.308-.067-.2-.315-.2-.5q-.011-2.175,0-4.351c0-.195-.114-.477.071-.568C355.98,360.816,356.152,361.073,356.332,361.19Z" transform="translate(-305.073 -360.804)" fill="#298e34"/>
      <path id="Path_2651" data-name="Path 2651" d="M356.167,410.928c-.269.235-.237.533-.231.857.024,1.329.013,2.659.007,3.988,0,.267.008.5.367.477-.107.17-.344.12-.419.29-.184-.077-.139-.2-.139-.307,0-1.567.011-3.134-.008-4.7C355.738,411.192,355.846,411.005,356.167,410.928Z" transform="translate(-305.127 -396.084)" fill="#298e34"/>
      <path id="Path_2652" data-name="Path 2652" d="M249.037,388.754l-.1.208c-.126-.034-.067-.139-.067-.2,0-1.6-.008-3.2.008-4.8,0-.122-.186-.389.162-.392Z" transform="translate(-229.736 -376.791)" fill="#018007"/>
      <path id="Path_2653" data-name="Path 2653" d="M241.829,382.316c.121-.088.033-.31.292-.368a16.65,16.65,0,0,0-.1,2.76c-.01.821,0,1.643,0,2.464,0,.8.124.935.939.991.125.009.251,0,.428,0-.064.068-.081.1-.1.1-1.378.062-1.378.062-1.378-1.3,0-1.064,0-2.128,0-3.193a.907.907,0,0,0-.067-.546Q241.836,382.772,241.829,382.316Z" transform="translate(-224.803 -375.65)" fill="#018007"/>
      <path id="Path_2654" data-name="Path 2654" d="M281.079,413.361c-.248.148-.238.387-.237.634.006,1.1,0,2.192,0,3.288a1.291,1.291,0,0,1-.1.653c-.148-.053-.1-.182-.1-.282,0-1.268,0-2.536,0-3.8C280.644,413.543,280.716,413.33,281.079,413.361Z" transform="translate(-252.171 -397.798)" fill="#298e34"/>
      <path id="Path_2655" data-name="Path 2655" d="M330.441,413.774a.477.477,0,0,1-.53.489.464.464,0,0,1-.489-.5.476.476,0,0,1,.528-.522C330.246,413.247,330.426,413.43,330.441,413.774Z" transform="translate(-286.567 -397.715)" fill="#13861f"/>
      <path id="Path_2656" data-name="Path 2656" d="M341.754,372.693a.686.686,0,0,0-.592-.231c-.577.016-1.155.011-1.733,0-.172,0-.385.086-.49-.151.885-.01,1.77-.011,2.655-.035C342.091,372.264,341.971,372.451,341.754,372.693Z" transform="translate(-293.278 -368.83)" fill="#018007"/>
      <path id="Path_2657" data-name="Path 2657" d="M314.643,392.926c-.147-.1-.121-.261-.121-.407q0-1.368,0-2.736c0-.16-.048-.344.148-.443Q314.657,391.134,314.643,392.926Z" transform="translate(-276.058 -380.863)" fill="#018007"/>
      <path id="Path_2658" data-name="Path 2658" d="M331.142,417.659c.051.082.265.131.145.233-.17.145-.3-.015-.378-.175Z" transform="translate(-287.616 -400.831)" fill="#018007"/>
      <path id="Path_2659" data-name="Path 2659" d="M329.806,418.3c.283.039.305.31.3.472a3.932,3.932,0,0,1-.142,1.921.226.226,0,0,0,.184.368c.139.02.355-.185.395.1.025.182-.167.165-.291.164-.2,0-.44.051-.444-.271,0-.224,0-.448,0-.673q0-1.037,0-2.075Z" transform="translate(-286.835 -401.28)" fill="#018007"/>
      <path id="Path_2660" data-name="Path 2660" d="M332.078,419.872v1.94l-.07,0v-1.912Z" transform="translate(-288.391 -402.391)" fill="#018007"/>
    </g>
  </g>
</svg>
