<svg xmlns="http://www.w3.org/2000/svg" width="18" height="15.035" viewBox="0 0 18 15.035">
  <path id="home" d="M79.026,107.17a1.426,1.426,0,0,0-.131.132q-.826,1.071-1.651,2.144c-.031.041-.066.08-.109.131l-.914-.7v6.364H71.1v-4.655H69.165v4.658H63.842v-6.376l-.931.712-1.885-2.449,9-6.923,3.3,2.54v-1.358h3.147v.209c0,1.13,0,2.261,0,3.391a.323.323,0,0,0,.145.292c.806.613,1.607,1.234,2.409,1.852Zm-6.861,2.361v4.658h2.987c0-.034.007-.057.007-.08q0-2.97,0-5.939a.29.29,0,0,0-.111-.193q-2.439-1.885-4.885-3.762c-.045-.035-.092-.066-.136-.1l-.194.147q-2.4,1.848-4.806,3.693a.306.306,0,0,0-.133.277q.006,2.882,0,5.764v.194h3.213v-4.66ZM63.1,108.1l6.921-5.324,6.921,5.324.6-.776-.206-.16c-.594-.457-1.186-.916-1.784-1.369a.306.306,0,0,1-.139-.276c.005-.955,0-1.91,0-2.864v-.208H74.39V104.9l-4.364-3.356-7.518,5.783Z" transform="translate(-61.026 -100.209)" fill="#fdd300"/>
</svg>
